IKResults
version=1
nRows=6
nColumns=63
inDegrees=yes

Units are S.I. units (second, meters, Newtons, ...)
If the header above contains a line with 'inDegrees', this indicates whether rotational values are in degrees (yes) or radians (no).

endheader
time	pelvis_tilt	pelvis_list	pelvis_rotation	pelvis_tx	pelvis_ty	pelvis_tz	hip_flexion_r	hip_adduction_r	hip_rotation_r	knee_angle_r	knee_angle_r_beta	ankle_angle_r	subtalar_angle_r	mtp_angle_r	hip_flexion_l	hip_adduction_l	hip_rotation_l	knee_angle_l	knee_angle_l_beta	ankle_angle_l	subtalar_angle_l	mtp_angle_l	L5_S1_Flex_Ext	L5_S1_Lat_Bending	L5_S1_axial_rotation	L4_L5_Flex_Ext	L4_L5_Lat_Bending	L4_L5_axial_rotation	L3_L4_Flex_Ext	L3_L4_Lat_Bending	L3_L4_axial_rotation	L2_L3_Flex_Ext	L2_L3_Lat_Bending	L2_L3_axial_rotation	L1_L2_Flex_Ext	L1_L2_Lat_Bending	L1_L2_axial_rotation	L1_T12_Flex_Ext	L1_T12_Lat_Bending	L1_T12_axial_rotation	Abs_r3	Abs_r2	Abs_r1	Abs_t1	Abs_t2	neck_flexion	neck_bending	neck_rotation	arm_flex_r	arm_add_r	arm_rot_r	elbow_flex_r	pro_sup_r	wrist_flex_r	wrist_dev_r	arm_flex_l	arm_add_l	arm_rot_l	elbow_flex_l	pro_sup_l	wrist_flex_l	wrist_dev_l
      0.03333333	    -13.26941261	     -0.27305073	      3.02418780	     -0.82537186	      0.96560684	     -1.33540106	      4.39058517	      0.74331983	      0.22746073	     14.08268464	      0.24578921	      0.00000000	      0.00000000	      0.00000000	      7.61074100	     -0.61048328	     -2.88920006	      0.57512685	      0.01003786	     13.85525399	    -15.53662102	      0.00000000	      2.52793497	      0.00736329	      0.60426364	      4.69462803	      0.00979318	      0.64203012	      4.15314436	      0.01790310	      0.64203012	      2.88917687	      0.01790310	      0.52873068	      2.34744041	      0.01501522	      0.49096421	      1.44446204	      0.01140574	      0.45319773	     18.05678668	      0.08329501	      3.36073308	      0.00000000	      0.00000000	    -10.07591706	      4.97655640	     -8.64602994	    -22.01370316	    -11.80220337	      0.40392028	     39.23858275	     89.99559364	      0.00000000	      0.00000000	     -3.70237288	    -15.15398955	     48.79158379	     26.74503604	     89.99559364	      0.00000000	      0.00000000
      0.06666667	    -13.27138086	     -0.26677032	      3.02300665	     -0.82528744	      0.96557211	     -1.33529676	      4.41365060	      0.74746232	      0.22799805	     14.08574825	      0.24584268	      0.00000000	      0.00000000	      0.00000000	      7.58850426	     -0.61184430	     -2.89690096	      0.55109480	      0.00961842	     13.86365825	    -15.53765003	      0.00000000	      2.52901344	      0.00688849	      0.60278686	      4.69663085	      0.00916169	      0.64046104	      4.15491618	      0.01674866	      0.64046104	      2.89040946	      0.01674866	      0.52743850	      2.34844188	      0.01404700	      0.48976432	      1.44507828	      0.01067026	      0.45209014	     18.06449008	      0.07792393	      3.35251968	      0.00000000	      0.00000000	    -10.07805624	      4.97583432	     -8.64416192	    -22.01668796	    -11.80345069	      0.40800638	     39.23520004	     89.99559364	      0.00000000	      0.00000000	     -3.68265127	    -15.15130312	     48.78421267	     26.75445575	     89.99559364	      0.00000000	      0.00000000
      0.10000000	    -13.27083331	     -0.25601979	      3.02161028	     -0.82512959	      0.96555676	     -1.33513866	      4.41693441	      0.74704326	      0.22803650	     14.08699096	      0.24586437	      0.00000000	      0.00000000	      0.00000000	      7.59100803	     -0.61379721	     -2.89737250	      0.60140608	      0.01049652	     13.86355117	    -15.53076578	      0.00000000	      2.52861060	      0.00694549	      0.60236484	      4.69588274	      0.00923750	      0.64001264	      4.15425435	      0.01688726	      0.64001264	      2.88994905	      0.01688726	      0.52706923	      2.34806780	      0.01416324	      0.48942143	      1.44484810	      0.01075856	      0.45177363	     18.06161263	      0.07856877	      3.35017252	      0.00000000	      0.00000000	    -10.07719751	      4.97566645	     -8.64367552	    -22.02124777	    -11.80463257	      0.40892540	     39.23432613	     89.99559364	      0.00000000	      0.00000000	     -3.68070913	    -15.14835996	     48.78366240	     26.75714640	     89.99559364	      0.00000000	      0.00000000
      0.13333333	    -13.14931054	     -0.13499289	      2.44853497	     -0.82501045	      0.96564432	     -1.33393551	      4.50423063	      0.71343115	      0.26678843	     14.37720791	      0.25092962	      0.00000000	      0.00000000	      0.00000000	      7.34391841	     -0.59889015	     -3.56952297	      0.52781731	      0.00921215	     13.79880381	    -15.51038593	      0.00000000	      2.50051521	      0.00498062	      0.67852438	      4.64370679	      0.00662422	      0.72093216	      4.10809644	      0.01210988	      0.72093216	      2.85783883	      0.01210988	      0.59370884	      2.32197842	      0.01015648	      0.55130106	      1.42879439	      0.00771498	      0.50889329	     17.86093008	      0.05634177	      3.77374907	      0.00000000	      0.00000000	    -10.03784740	      4.97724760	     -8.53614097	    -21.73307375	    -12.12607686	      1.75135565	     38.95987002	     89.99559364	      0.00000000	      0.00000000	     -3.95980443	    -15.19845151	     47.47769656	     27.20979791	     89.99559364	      0.00000000	      0.00000000
      0.16666667	    -13.13867029	     -0.11003334	      2.42570751	     -0.82464060	      0.96558048	     -1.33348394	      4.55381145	      0.71656095	      0.26749568	     14.38001253	      0.25097857	      0.00000000	      0.00000000	      0.00000000	      7.31895710	     -0.61662893	     -3.58149547	      0.60895719	      0.01062831	     13.80070008	    -15.50633631	      0.00000000	      2.49861325	      0.00335884	      0.67464354	      4.64017467	      0.00446725	      0.71680876	      4.10497171	      0.00816667	      0.71680876	      2.85566509	      0.00816667	      0.59031310	      2.32021227	      0.00684934	      0.54814787	      1.42770761	      0.00520284	      0.50598265	     17.84734461	      0.03799582	      3.75216496	      0.00000000	      0.00000000	    -10.03846989	      4.97266054	     -8.53048995	    -21.77257323	    -12.12697356	      1.76022898	     38.94445460	     89.99559364	      0.00000000	      0.00000000	     -3.94237303	    -15.18588549	     47.47006047	     27.23274608	     89.99559364	      0.00000000	      0.00000000
      0.20000000	    -12.82693121	      0.08506392	      1.60590043	     -0.82447920	      0.96579467	     -1.33149521	      4.56430090	      0.67263870	      0.31908941	     14.78069072	      0.25797172	      0.00000000	      0.00000000	      0.00000000	      6.83978550	     -0.58752530	     -4.60707177	      0.56051884	      0.00978290	     13.79622321	    -15.39528097	      0.00000000	      2.43114960	     -0.00213110	      0.76562504	      4.51488792	     -0.00283436	      0.81347660	      3.99413567	     -0.00518156	      0.81347660	      2.77856087	     -0.00518156	      0.66992191	      2.25756552	     -0.00434574	      0.62207034	      1.38915888	     -0.00330107	      0.57421878	     17.36545846	     -0.02410742	      4.25817678	      0.00000000	      0.00000000	     -9.92498936	      4.96334861	     -8.29278261	    -21.16933246	    -12.58891379	      3.87557972	     38.49928903	     89.99559364	      0.00000000	      0.00000000	     -4.57763174	    -15.25753872	     44.50114904	     28.13549650	     89.99559364	      0.00000000	      0.00000000
